<svg width="32" height="32" viewBox="0 0 32 32" fill="none" xmlns="http://www.w3.org/2000/svg">
<path d="M28.2245 0L26.2434 3.4483H22.8008L24.7717 0H0V32.0052H31.9037V0H28.2245ZM17.0891 15.9458L11.3567 23.4928L17.0891 31.0708H12.4579L9.01537 26.5849L5.62946 31.045H0.843904L6.65346 23.5083L0.84905 15.9458L6.65346 8.38329L0.843904 0.820778H5.62946L9.01537 5.28085L12.4579 0.794967H17.0891L11.3515 8.38329L17.0891 15.9458ZM31.0341 26.2029H20.7065C20.7412 26.5885 20.8619 26.9612 21.0596 27.2936C21.2574 27.6261 21.5271 27.9096 21.8489 28.1232C22.6439 28.6065 23.5655 28.8385 24.4938 28.7892C25.1279 28.8003 25.7588 28.6971 26.3566 28.4846C26.8503 28.3182 27.2897 28.0202 27.6276 27.6225H30.715C30.3503 28.7365 29.5653 29.663 28.5281 30.2036C27.2627 30.8479 25.8554 31.1604 24.4372 31.1121C22.3789 31.1121 20.71 30.5959 19.4304 29.5635C18.8142 29.0718 18.3215 28.4422 17.9918 27.725C17.662 27.0078 17.5044 26.2231 17.5316 25.4338C17.5157 24.6504 17.6818 23.8741 18.0168 23.1663C18.3517 22.4585 18.8462 21.8386 19.4613 21.3557C20.8706 20.2519 22.625 19.6866 24.4115 19.7606C26.1759 19.676 27.9042 20.2811 29.233 21.4486C29.8414 22.0223 30.3192 22.7211 30.6335 23.4971C30.9479 24.2731 31.0916 25.108 31.0546 25.9448L31.0341 26.2029ZM31.0341 10.8456H20.7065C20.7407 11.2355 20.8609 11.6129 21.0585 11.9504C21.2561 12.2879 21.5261 12.577 21.8489 12.7969C22.6407 13.2892 23.5635 13.5269 24.4938 13.4783C25.1287 13.4887 25.7601 13.382 26.3566 13.1634C26.8521 12.9953 27.2919 12.6935 27.6276 12.291H30.715C30.3455 13.4023 29.5619 14.3272 28.5281 14.8721C28.2386 15.0355 27.9356 15.1737 27.6224 15.285H27.6893L25.667 18.7385H22.2451L23.9535 15.8013C22.3053 15.8056 20.704 15.2507 19.4098 14.2268C18.7908 13.7263 18.2959 13.0888 17.9638 12.3643C17.6317 11.6397 17.4714 10.8478 17.4956 10.0507C17.4804 9.26001 17.6465 8.47645 17.9811 7.76042C18.3157 7.04439 18.8098 6.41505 19.4252 5.92096C20.8301 4.79355 22.5933 4.21251 24.3909 4.28456C26.1597 4.20094 27.8907 4.81623 29.2125 5.99839C29.8231 6.58678 30.3014 7.29915 30.6156 8.08788C30.9297 8.87662 31.0724 9.72354 31.0341 10.572V10.8456Z" fill="#EFDF7A"/>
</svg>
