<svg width="18" height="18" viewBox="0 0 18 18" fill="none" xmlns="http://www.w3.org/2000/svg">
<path d="M8.12518 9.8883L6.77268 8.5485C6.65726 8.43309 6.51434 8.37406 6.34393 8.37142C6.17351 8.36878 6.02365 8.43205 5.89434 8.56121C5.77365 8.68205 5.7133 8.82844 5.7133 9.00038C5.7133 9.17233 5.77365 9.31871 5.89434 9.43955L7.59788 11.1431C7.74858 11.2936 7.92434 11.3689 8.12518 11.3689C8.32601 11.3689 8.50177 11.2936 8.65247 11.1431L12.106 7.68955C12.2299 7.56552 12.291 7.42045 12.2893 7.25434C12.2878 7.08823 12.2267 6.94052 12.106 6.81121C11.9767 6.68205 11.8282 6.61531 11.6604 6.611C11.4927 6.6067 11.3443 6.6692 11.215 6.7985L8.12518 9.8883ZM6.0083 16.6527L4.85601 14.7152L2.67643 14.247C2.48948 14.2108 2.34018 14.1125 2.22851 13.9523C2.11684 13.792 2.07226 13.6184 2.09476 13.4314L2.30788 11.1895L0.825593 9.49392C0.697398 9.35725 0.633301 9.19274 0.633301 9.00038C0.633301 8.80802 0.697398 8.64351 0.825593 8.50684L2.30788 6.81121L2.09476 4.56934C2.07226 4.38239 2.11684 4.20878 2.22851 4.04851C2.34018 3.88823 2.48948 3.78996 2.67643 3.75371L4.85601 3.28559L6.0083 1.34809C6.10872 1.18364 6.24545 1.07149 6.41851 1.01163C6.59156 0.951768 6.76733 0.960865 6.9458 1.03892L9.00018 1.90746L11.0546 1.03892C11.233 0.960865 11.4088 0.951768 11.5818 1.01163C11.7549 1.07149 11.8916 1.18364 11.9921 1.34809L13.1443 3.28559L15.3239 3.75371C15.5109 3.78996 15.6602 3.88823 15.7718 4.04851C15.8835 4.20878 15.9281 4.38239 15.9056 4.56934L15.6925 6.81121L17.1748 8.50684C17.303 8.64351 17.3671 8.80802 17.3671 9.00038C17.3671 9.19274 17.303 9.35725 17.1748 9.49392L15.6925 11.1895L15.9056 13.4314C15.9281 13.6184 15.8835 13.792 15.7718 13.9523C15.6602 14.1125 15.5109 14.2108 15.3239 14.247L13.1443 14.7152L11.9921 16.6527C11.8916 16.8171 11.7549 16.9293 11.5818 16.9891C11.4088 17.049 11.233 17.0399 11.0546 16.9618L9.00018 16.0933L6.9458 16.9618C6.76733 17.0399 6.59156 17.049 6.41851 16.9891C6.24545 16.9293 6.10872 16.8171 6.0083 16.6527ZM6.87518 15.6254L9.00018 14.7248L11.1508 15.6254L12.3335 13.6254L14.6252 13.0998L14.4168 10.7504L15.9585 9.00038L14.4168 7.22476L14.6252 4.87538L12.3335 4.37538L11.1252 2.37538L9.00018 3.276L6.84955 2.37538L5.66684 4.37538L3.37518 4.87538L3.58351 7.22476L2.04184 9.00038L3.58351 10.7504L3.37518 13.1254L5.66684 13.6254L6.87518 15.6254Z" fill="white"/>
</svg>
