<svg width="66" height="19" viewBox="0 0 66 19" fill="none" xmlns="http://www.w3.org/2000/svg">
<g filter="url(#filter0_d_1363_6339)">
<rect x="2.02368" y="1.44727" width="61" height="14" rx="7" fill="url(#paint0_linear_1363_6339)" shape-rendering="crispEdges"/>
<rect x="1.52368" y="0.947266" width="62" height="15" rx="7.5" stroke="url(#paint1_linear_1363_6339)" stroke-opacity="0.6" shape-rendering="crispEdges"/>
<g filter="url(#filter1_d_1363_6339)">
<rect x="3.02368" y="2.44727" width="12" height="12" rx="6" fill="white" fill-opacity="0.9" shape-rendering="crispEdges"/>
<path d="M8.46063 13.132C7.43384 13.0321 6.39279 12.533 5.8794 11.6346C5.38027 10.7361 5.50862 9.59526 5.86514 8.61126L6.16462 9.46692C6.19314 9.55248 6.23592 9.65231 6.30723 9.69509C6.42132 9.76639 6.57819 9.70935 6.66375 9.59526C6.73506 9.48118 6.74932 9.33857 6.73506 9.21022C6.69227 8.63978 6.36427 8.11213 6.35001 7.54169C6.33575 6.88569 6.74932 6.28673 7.26271 5.87316C7.27697 6.10134 7.33401 6.34378 7.40532 6.55769C7.43384 6.64325 7.49088 6.72882 7.57645 6.74308C7.63349 6.74308 7.69054 6.71456 7.73332 6.67178C8.16115 6.31525 8.41784 5.80186 8.51767 5.25995C8.56045 4.98899 8.56045 4.70377 8.50341 4.43281C8.48915 4.37577 8.37506 4.09055 8.40358 4.04777C8.44637 3.9622 8.6888 4.14759 8.74584 4.17612C9.68707 4.77507 10.3145 5.84464 10.3288 6.95699C10.3288 7.12813 10.3573 7.3563 10.5285 7.38482C10.6283 7.39908 10.7281 7.34204 10.7852 7.25647C10.8422 7.17091 10.8422 7.07108 10.8565 6.97126C11.5267 7.57021 12.0116 8.31178 12.3396 9.13891C12.525 9.62379 12.6533 10.1514 12.5535 10.6648C12.4679 11.1354 12.2398 11.5633 11.9118 11.9198C11.3699 12.533 10.6425 13.0179 9.82967 13.1034C9.40185 13.1462 8.9455 13.1605 8.46063 13.132Z" fill="#F95353"/>
<path d="M10.9706 12.4762C10.942 12.576 10.8992 12.6901 10.8565 12.7899C10.5427 12.9611 10.2005 13.0751 9.84394 13.1037C9.57298 13.1322 9.30203 13.1464 9.01681 13.1464C8.84568 13.1464 8.66028 13.1464 8.47489 13.1322C8.14689 13.1037 7.81889 13.0324 7.50515 12.9183C7.33402 12.6758 7.21993 12.3906 7.17715 12.1054C7.07732 11.4779 7.26271 10.8362 7.61924 10.3085C7.67628 10.223 7.80463 10.2515 7.83315 10.3513C7.93298 10.6793 8.14689 10.9788 8.38933 11.2355C8.46063 11.3068 8.57472 11.264 8.58898 11.1642C8.6175 10.8219 8.68881 10.1802 8.81715 9.83792C8.97402 9.41009 9.21646 8.99652 9.57298 8.69704C9.64429 8.64 9.74411 8.66852 9.75837 8.76835C9.82968 9.19617 10.0436 9.59548 10.2575 9.98052C10.5142 10.4084 10.7994 10.8362 10.9278 11.3211C11.0561 11.6776 11.0704 12.0911 10.9706 12.4762Z" fill="white"/>
<path d="M10.9706 12.4762C10.942 12.576 10.8992 12.6901 10.8565 12.7899C10.5427 12.9611 10.2005 13.0751 9.84394 13.1037C9.57298 13.1322 9.30203 13.1464 9.01681 13.1464C8.84568 13.1464 8.66028 13.1464 8.47489 13.1322C8.14689 13.1037 7.81889 13.0324 7.50515 12.9183C7.33402 12.6758 7.21993 12.3906 7.17715 12.1054C7.07732 11.4779 7.26271 10.8362 7.61924 10.3085C7.67628 10.223 7.80463 10.2515 7.83315 10.3513C7.93298 10.6793 8.14689 10.9788 8.38933 11.2355C8.46063 11.3068 8.57472 11.264 8.58898 11.1642C8.6175 10.8219 8.68881 10.1802 8.81715 9.83792C8.97402 9.41009 9.21646 8.99652 9.57298 8.69704C9.64429 8.64 9.74411 8.66852 9.75837 8.76835C9.82968 9.19617 10.0436 9.59548 10.2575 9.98052C10.5142 10.4084 10.7994 10.8362 10.9278 11.3211C11.0561 11.6776 11.0704 12.0911 10.9706 12.4762Z" fill="#FFD550"/>
<path d="M10.9706 12.4762C10.942 12.576 10.8992 12.6901 10.8565 12.7899C10.5427 12.9611 10.2005 13.0751 9.84394 13.1037C9.57298 13.1322 9.30203 13.1464 9.01681 13.1464C8.84568 13.1464 8.66028 13.1464 8.47489 13.1322C8.14689 13.1037 7.81889 13.0324 7.50515 12.9183C7.33402 12.6758 7.21993 12.3906 7.17715 12.1054C7.07732 11.4779 7.26271 10.8362 7.61924 10.3085C7.67628 10.223 7.80463 10.2515 7.83315 10.3513C7.93298 10.6793 8.14689 10.9788 8.38933 11.2355C8.46063 11.3068 8.57472 11.264 8.58898 11.1642C8.6175 10.8219 8.68881 10.1802 8.81715 9.83792C8.97402 9.41009 9.21646 8.99652 9.57298 8.69704C9.64429 8.64 9.74411 8.66852 9.75837 8.76835C9.82968 9.19617 10.0436 9.59548 10.2575 9.98052C10.5142 10.4084 10.7994 10.8362 10.9278 11.3211C11.0561 11.6776 11.0704 12.0911 10.9706 12.4762Z" fill="#FFD550"/>
</g>
<g filter="url(#filter2_d_1363_6339)">
<path d="M17.6856 11.4473V5.62908H18.9157V8.02965H21.4129V5.62908H22.6402V11.4473H21.4129V9.04386H18.9157V11.4473H17.6856ZM29.001 8.53817C29.001 9.17264 28.8807 9.71242 28.6402 10.1575C28.4015 10.6026 28.0758 10.9425 27.6629 11.1774C27.2519 11.4103 26.7898 11.5268 26.2765 11.5268C25.7595 11.5268 25.2955 11.4094 24.8845 11.1745C24.4735 10.9397 24.1487 10.5997 23.91 10.1547C23.6714 9.70958 23.5521 9.17075 23.5521 8.53817C23.5521 7.9037 23.6714 7.36393 23.91 6.91886C24.1487 6.47378 24.4735 6.13477 24.8845 5.90181C25.2955 5.66696 25.7595 5.54954 26.2765 5.54954C26.7898 5.54954 27.2519 5.66696 27.6629 5.90181C28.0758 6.13477 28.4015 6.47378 28.6402 6.91886C28.8807 7.36393 29.001 7.9037 29.001 8.53817ZM27.7538 8.53817C27.7538 8.12719 27.6922 7.7806 27.5691 7.4984C27.4479 7.21621 27.2765 7.00219 27.0549 6.85636C26.8333 6.71052 26.5739 6.63761 26.2765 6.63761C25.9792 6.63761 25.7197 6.71052 25.4981 6.85636C25.2765 7.00219 25.1042 7.21621 24.9811 7.4984C24.8599 7.7806 24.7992 8.12719 24.7992 8.53817C24.7992 8.94916 24.8599 9.29575 24.9811 9.57795C25.1042 9.86014 25.2765 10.0742 25.4981 10.22C25.7197 10.3658 25.9792 10.4387 26.2765 10.4387C26.5739 10.4387 26.8333 10.3658 27.0549 10.22C27.2765 10.0742 27.4479 9.86014 27.5691 9.57795C27.6922 9.29575 27.7538 8.94916 27.7538 8.53817ZM29.425 6.64329V5.62908H34.2034V6.64329H32.4221V11.4473H31.2062V6.64329H29.425ZM39.9981 7.30238C39.9754 7.07321 39.8778 6.89518 39.7055 6.76829C39.5332 6.64139 39.2992 6.57795 39.0038 6.57795C38.803 6.57795 38.6335 6.60636 38.4953 6.66317C38.357 6.7181 38.251 6.7948 38.1771 6.89329C38.1051 6.99177 38.0691 7.10352 38.0691 7.22852C38.0653 7.33268 38.0871 7.42359 38.1345 7.50124C38.1837 7.57889 38.251 7.64613 38.3362 7.70295C38.4214 7.75787 38.5199 7.80617 38.6316 7.84783C38.7434 7.88761 38.8627 7.9217 38.9896 7.95011L39.5123 8.07511C39.7661 8.13192 39.9991 8.20768 40.2112 8.30238C40.4233 8.39708 40.607 8.51355 40.7623 8.65181C40.9176 8.79007 41.0379 8.95295 41.1231 9.14045C41.2102 9.32795 41.2547 9.54291 41.2566 9.78533C41.2547 10.1414 41.1638 10.4501 40.9839 10.7115C40.8059 10.9709 40.5483 11.1726 40.2112 11.3166C39.876 11.4586 39.4716 11.5297 38.9981 11.5297C38.5284 11.5297 38.1193 11.4577 37.7708 11.3137C37.4242 11.1698 37.1534 10.9567 36.9583 10.6745C36.7652 10.3904 36.6638 10.0391 36.6544 9.62056H37.8447C37.858 9.81564 37.9138 9.97852 38.0123 10.1092C38.1127 10.238 38.2462 10.3355 38.4129 10.4018C38.5814 10.4662 38.7718 10.4984 38.9839 10.4984C39.1922 10.4984 39.3731 10.4681 39.5265 10.4075C39.6818 10.3469 39.8021 10.2626 39.8873 10.1547C39.9725 10.0467 40.0152 9.92264 40.0152 9.78249C40.0152 9.65181 39.9763 9.54196 39.8987 9.45295C39.8229 9.36393 39.7112 9.28817 39.5635 9.22567C39.4176 9.16317 39.2386 9.10636 39.0265 9.05522L38.393 8.89613C37.9025 8.77681 37.5152 8.59026 37.2311 8.33647C36.947 8.08268 36.8059 7.74083 36.8078 7.3109C36.8059 6.95863 36.8996 6.65086 37.089 6.38761C37.2803 6.12435 37.5426 5.91886 37.876 5.77113C38.2093 5.6234 38.5881 5.54954 39.0123 5.54954C39.4441 5.54954 39.821 5.6234 40.143 5.77113C40.4669 5.91886 40.7188 6.12435 40.8987 6.38761C41.0786 6.65086 41.1714 6.95579 41.1771 7.30238H39.9981ZM42.9541 11.4473H41.6359L43.6444 5.62908H45.2296L47.2353 11.4473H45.9171L44.4598 6.95863H44.4143L42.9541 11.4473ZM42.8717 9.16033H45.9853V10.1206H42.8717V9.16033ZM47.9356 11.4473V5.62908H49.1657V10.4331H51.66V11.4473H47.9356ZM52.4747 11.4473V5.62908H56.3951V6.64329H53.7048V8.02965H56.1934V9.04386H53.7048V10.4331H56.4065V11.4473H52.4747Z" fill="white"/>
</g>
</g>
<defs>
<filter id="filter0_d_1363_6339" x="0.0236816" y="0.447266" width="65" height="18" filterUnits="userSpaceOnUse" color-interpolation-filters="sRGB">
<feFlood flood-opacity="0" result="BackgroundImageFix"/>
<feColorMatrix in="SourceAlpha" type="matrix" values="0 0 0 0 0 0 0 0 0 0 0 0 0 0 0 0 0 0 127 0" result="hardAlpha"/>
<feOffset dy="1"/>
<feGaussianBlur stdDeviation="0.5"/>
<feComposite in2="hardAlpha" operator="out"/>
<feColorMatrix type="matrix" values="0 0 0 0 0 0 0 0 0 0 0 0 0 0 0 0 0 0 0.2 0"/>
<feBlend mode="normal" in2="BackgroundImageFix" result="effect1_dropShadow_1363_6339"/>
<feBlend mode="normal" in="SourceGraphic" in2="effect1_dropShadow_1363_6339" result="shape"/>
</filter>
<filter id="filter1_d_1363_6339" x="1.02368" y="1.44727" width="16" height="16" filterUnits="userSpaceOnUse" color-interpolation-filters="sRGB">
<feFlood flood-opacity="0" result="BackgroundImageFix"/>
<feColorMatrix in="SourceAlpha" type="matrix" values="0 0 0 0 0 0 0 0 0 0 0 0 0 0 0 0 0 0 127 0" result="hardAlpha"/>
<feOffset dy="1"/>
<feGaussianBlur stdDeviation="1"/>
<feComposite in2="hardAlpha" operator="out"/>
<feColorMatrix type="matrix" values="0 0 0 0 0 0 0 0 0 0 0 0 0 0 0 0 0 0 0.25 0"/>
<feBlend mode="normal" in2="BackgroundImageFix" result="effect1_dropShadow_1363_6339"/>
<feBlend mode="normal" in="SourceGraphic" in2="effect1_dropShadow_1363_6339" result="shape"/>
</filter>
<filter id="filter2_d_1363_6339" x="15.6856" y="4.54883" width="42.7209" height="9.98047" filterUnits="userSpaceOnUse" color-interpolation-filters="sRGB">
<feFlood flood-opacity="0" result="BackgroundImageFix"/>
<feColorMatrix in="SourceAlpha" type="matrix" values="0 0 0 0 0 0 0 0 0 0 0 0 0 0 0 0 0 0 127 0" result="hardAlpha"/>
<feOffset dy="1"/>
<feGaussianBlur stdDeviation="1"/>
<feComposite in2="hardAlpha" operator="out"/>
<feColorMatrix type="matrix" values="0 0 0 0 0 0 0 0 0 0 0 0 0 0 0 0 0 0 0.3 0"/>
<feBlend mode="normal" in2="BackgroundImageFix" result="effect1_dropShadow_1363_6339"/>
<feBlend mode="normal" in="SourceGraphic" in2="effect1_dropShadow_1363_6339" result="shape"/>
</filter>
<linearGradient id="paint0_linear_1363_6339" x1="2.02368" y1="2.92697" x2="58.5019" y2="17.9493" gradientUnits="userSpaceOnUse">
<stop stop-color="#EF345F"/>
<stop offset="1" stop-color="#A4001B"/>
</linearGradient>
<linearGradient id="paint1_linear_1363_6339" x1="2.02368" y1="8.44727" x2="63.0237" y2="8.44727" gradientUnits="userSpaceOnUse">
<stop stop-color="white" stop-opacity="0"/>
<stop offset="1" stop-color="white"/>
</linearGradient>
</defs>
</svg>
