<svg width="14" height="16" viewBox="0 0 14 16" fill="none" xmlns="http://www.w3.org/2000/svg">
<path d="M6.125 8.88827L4.79812 7.56119C4.6741 7.4373 4.52903 7.37404 4.36292 7.3714C4.19681 7.36876 4.0491 7.43202 3.91979 7.56119C3.79062 7.6905 3.72604 7.83904 3.72604 8.00681C3.72604 8.17445 3.79062 8.32293 3.91979 8.45223L5.59771 10.1431C5.7484 10.2936 5.92417 10.3689 6.125 10.3689C6.32583 10.3689 6.5016 10.2936 6.65229 10.1431L10.1058 6.68952C10.2297 6.5655 10.293 6.41827 10.2956 6.24786C10.2983 6.07758 10.235 5.92779 10.1058 5.79848C9.97653 5.66918 9.82799 5.60452 9.66021 5.60452C9.49257 5.60452 9.3441 5.66918 9.21479 5.79848L6.125 8.88827ZM7 15.8095C6.91347 15.8095 6.82854 15.8026 6.74521 15.7887C6.66187 15.7748 6.58118 15.754 6.50312 15.7262C4.74576 15.1012 3.34757 13.9931 2.30854 12.4018C1.26951 10.8104 0.75 9.09327 0.75 7.25036V3.49723C0.75 3.18195 0.841389 2.89751 1.02417 2.6439C1.20681 2.39015 1.44181 2.20612 1.72917 2.09181L6.47271 0.320981C6.65118 0.256815 6.82694 0.224731 7 0.224731C7.17306 0.224731 7.34882 0.256815 7.52729 0.320981L12.2708 2.09181C12.5582 2.20612 12.7932 2.39015 12.9758 2.6439C13.1586 2.89751 13.25 3.18195 13.25 3.49723V7.25036C13.25 9.09327 12.7305 10.8104 11.6915 12.4018C10.6524 13.9931 9.25424 15.1012 7.49688 15.7262C7.41882 15.754 7.33813 15.7748 7.25479 15.7887C7.17146 15.8026 7.08653 15.8095 7 15.8095ZM7 14.5837C8.44444 14.1254 9.63889 13.2087 10.5833 11.8337C11.5278 10.4587 12 8.93091 12 7.25036V3.48911C12 3.43577 11.9853 3.38772 11.9558 3.34494C11.9265 3.30216 11.8851 3.27008 11.8317 3.24869L7.08813 1.47786C7.06146 1.46716 7.03208 1.46182 7 1.46182C6.96792 1.46182 6.93854 1.46716 6.91187 1.47786L2.16833 3.24869C2.11486 3.27008 2.07347 3.30216 2.04417 3.34494C2.01472 3.38772 2 3.43577 2 3.48911V7.25036C2 8.93091 2.47222 10.4587 3.41667 11.8337C4.36111 13.2087 5.55556 14.1254 7 14.5837Z" fill="white"/>
</svg>
