<?xml version="1.0" encoding="UTF-8"?>
<svg width="200px" height="160px" viewBox="0 0 200 160" version="1.1" xmlns="http://www.w3.org/2000/svg" xmlns:xlink="http://www.w3.org/1999/xlink">
    <title>画板备份 4</title>
    <defs>
        <linearGradient x1="50%" y1="0%" x2="50%" y2="100%" id="linearGradient-1">
            <stop stop-color="#9ECA66" offset="0%"></stop>
            <stop stop-color="#609B15" offset="100%"></stop>
        </linearGradient>
        <linearGradient x1="50%" y1="0%" x2="50%" y2="100%" id="linearGradient-2">
            <stop stop-color="#CCFF8A" offset="0%"></stop>
            <stop stop-color="#3F7100" offset="100%"></stop>
        </linearGradient>
        <rect id="path-3" x="0" y="0" width="200" height="160" rx="2"></rect>
        <filter x="-4.8%" y="-5.9%" width="109.5%" height="111.9%" filterUnits="objectBoundingBox" id="filter-5">
            <feGaussianBlur stdDeviation="7" in="SourceAlpha" result="shadowBlurInner1"></feGaussianBlur>
            <feOffset dx="0" dy="5" in="shadowBlurInner1" result="shadowOffsetInner1"></feOffset>
            <feComposite in="shadowOffsetInner1" in2="SourceAlpha" operator="arithmetic" k2="-1" k3="1" result="shadowInnerInner1"></feComposite>
            <feColorMatrix values="0 0 0 0 1   0 0 0 0 1   0 0 0 0 1  0 0 0 0.325939685 0" type="matrix" in="shadowInnerInner1"></feColorMatrix>
        </filter>
        <linearGradient x1="50%" y1="9.20697476%" x2="50%" y2="86.1356841%" id="linearGradient-6">
            <stop stop-color="#FFFFFF" stop-opacity="0.0793815559" offset="0%"></stop>
            <stop stop-color="#FFFFFF" stop-opacity="0" offset="100%"></stop>
        </linearGradient>
        <rect id="path-7" x="0" y="0" width="200" height="160" rx="2"></rect>
    </defs>
    <g id="画板备份-4" stroke="none" stroke-width="1" fill="none" fill-rule="evenodd">
        <mask id="mask-4" fill="white">
            <use xlink:href="#path-3"></use>
        </mask>
        <g id="蒙版">
            <use fill="url(#linearGradient-1)" fill-rule="evenodd" xlink:href="#path-3"></use>
            <use fill="black" fill-opacity="1" filter="url(#filter-5)" xlink:href="#path-3"></use>
            <rect stroke="url(#linearGradient-2)" stroke-width="2" stroke-linejoin="square" x="1" y="1" width="198" height="158" rx="2"></rect>
        </g>
        <mask id="mask-8" fill="white">
            <use xlink:href="#path-7"></use>
        </mask>
        <use id="蒙版备份" fill="url(#linearGradient-6)" style="mix-blend-mode: overlay;" xlink:href="#path-7"></use>
        <polygon id="路径" fill-opacity="0.12" fill="#FFFFFF" fill-rule="nonzero" mask="url(#mask-8)" points="41.0906115 16.9803874 48.2905326 11.5640084 43.9179778 12.0900301 40.7782862 14.4489083 33.1591916 11.2023686 32.5920745 6.57502203 34.2358921 8.7859567 35.7482043 8.60513677 36.8249048 6.05721948 37.3838028 10.684566 39.7509002 10.396898 38.6248851 0.755907716 36.2988832 1.03535671 34.6550656 5.54763603 32.0496147 1.7257601 29.5345738 2.02986636 30.8167515 12.6078326"></polygon>
        <polygon id="路径" fill-opacity="0.12" fill="#FFFFFF" fill-rule="nonzero" mask="url(#mask-8)" points="38.6248851 -3.22213088 46.3179515 0.0655043232 46.8439731 4.41340188 45.2001555 2.20246721 43.6796242 2.38328714 42.6029237 4.93120443 42.0440257 0.303857876 39.6769284 0.591525956 40.8440389 10.2325162 43.1700408 9.9530672 44.8138584 5.44078788 47.485062 9.41060739 47.4275284 9.45170283 49.8521593 9.16403475 48.5782007 -1.38105517 38.3207788 -5.75360999 31.2277059 -0.402983693 35.6084798 -0.929005326"></polygon>
        <polygon id="路径" fill-opacity="0.12" fill="#FFFFFF" fill-rule="nonzero" mask="url(#mask-8)" points="104.747448 9.25444472 111.955588 3.83806572 107.574814 4.37230644 104.443342 6.7311847 96.8160282 3.4435495 96.2571302 -1.18379705 97.9009478 1.03535671 99.41326 0.846317684 100.489961 -1.69338051 101.048859 2.92574695 103.415956 2.64629796 102.265284 -6.97003501 99.9392817 -6.72346237 98.295464 -2.21118306 95.7311086 -6.03305898 93.2160677 -5.72895272 94.5146836 4.8818899"></polygon>
        <polygon id="路径" fill-opacity="0.12" fill="#FFFFFF" fill-rule="nonzero" mask="url(#mask-8)" points="102.281722 -10.9480736 109.974788 -7.66043841 110.50081 -3.30432176 108.856992 -5.52347552 107.34468 -5.34265559 106.267979 -2.7947383 105.700862 -7.42208485 103.333765 -7.13441677 104.509095 2.51479255 106.835096 2.22712447 108.478914 -2.27693576 111.150118 1.69288375 111.092584 1.73397919 113.517215 1.43809202 112.243256 -9.09055972 101.985835 -13.4631145 94.8681043 -8.11248825 99.2406592 -8.64672897"></polygon>
        <polygon id="路径" fill-opacity="0.12" fill="#FFFFFF" fill-rule="nonzero" mask="url(#mask-8)" points="168.404285 1.53672108 175.612425 -3.87965792 171.23987 -3.3454172 168.124836 -0.970100766 160.497522 -4.25773597 159.938624 -8.88508252 161.582442 -6.67414784 163.094754 -6.85496778 164.171454 -9.40288506 164.738572 -4.77553851 167.105669 -5.06320659 165.938558 -14.6877587 163.612556 -14.4083097 161.968739 -9.89603034 159.396164 -13.7179063 156.872904 -13.4138 158.155082 -2.82761466"></polygon>
        <polygon id="路径" fill-opacity="0.12" fill="#FFFFFF" fill-rule="nonzero" mask="url(#mask-8)" points="52.2678504 71.9323701 49.7376197 72.2367588 47.9208 73.6017516 43.5071646 71.6993226 43.1837516 69.0216537 44.1349662 70.3010372 45.0148396 70.1964036 45.6378851 68.7220211 45.961298 71.39969 47.331047 71.2332275 46.6509286 65.6543543 45.30496 65.8160607 44.3537455 68.4271446 42.8650948 66.2155708 41.4049805 66.3915455 42.1802203 72.5221231 48.1110429 75.0523538"></polygon>
        <polygon id="路径" fill-opacity="0.12" fill="#FFFFFF" fill-rule="nonzero" mask="url(#mask-8)" points="42.3989996 65.0075284 44.9292303 64.7031397 46.6937332 63.3761955 51.1454172 65.2786245 51.4545619 67.794587 50.5033474 66.5152034 49.62823 66.619837 49.0051845 68.0942195 48.6817716 65.4165506 47.3120227 65.5830132 47.987385 71.1571303 49.3333535 70.9954238 50.2845681 68.38434 51.8255356 70.681523 51.7969992 70.7053034 53.1952845 70.5388409 52.4533372 64.4367997 46.5177585 61.901813"></polygon>
        <polygon id="路径" fill-opacity="0.12" fill="#FFFFFF" fill-rule="nonzero" mask="url(#mask-8)" points="123.404066 69.3655609 117.089907 70.1251589 112.567925 73.5314813 101.553754 68.7839936 100.734812 62.1019047 103.108556 65.3064589 105.2924 65.0334784 106.847203 61.3660441 107.654275 68.048133 111.072467 67.6327279 109.387108 53.6988516 106.028261 54.102388 103.654517 60.6183148 99.9514768 55.0993604 96.3196487 55.5503718 98.1711689 70.8254133 113.007068 77.2345216"></polygon>
        <polygon id="路径" fill-opacity="0.12" fill="#FFFFFF" fill-rule="nonzero" mask="url(#mask-8)" points="98.7408674 52.0847058 105.066895 51.313239 109.47019 48.0018664 120.579311 52.749354 121.338909 59.0279065 118.965165 55.8233523 116.769452 56.0963328 115.21465 59.7637671 114.407577 53.0816782 110.941911 53.4970834 112.639138 67.4309596 115.986116 67.0274232 118.35986 60.5114964 122.217194 66.2440877 122.134113 66.3034313 125.635385 65.8761574 123.783865 50.6723282 109.019178 44.3581696"></polygon>
        <polygon id="路径" fill-opacity="0.12" fill="#FFFFFF" fill-rule="nonzero" mask="url(#mask-8)" points="183.280834 59.0292417 178.908279 59.5634824 175.768588 61.9141416 168.141274 58.6265064 167.582376 53.9991598 169.226194 56.2100945 170.738506 56.0292746 171.815206 53.4813573 172.382323 58.1087038 174.741202 57.8210358 173.574091 48.1800455 171.248089 48.4594945 169.604272 52.9717738 167.023478 49.1663361 164.508437 49.4704424 165.790615 60.0566277 176.048037 64.4291825"></polygon>
        <polygon id="路径" fill-opacity="0.12" fill="#FFFFFF" fill-rule="nonzero" mask="url(#mask-8)" points="166.185131 47.0375923 170.557686 46.5115707 173.606967 44.2348833 181.300034 47.5225185 181.826055 51.8704161 180.182238 49.6594814 178.669926 49.8403013 177.593225 52.3882186 177.026108 47.760872 174.66723 48.0485401 175.83434 57.6895304 178.160342 57.4100814 179.80416 52.8978021 182.475363 56.8676216 182.41783 56.8676216 184.842461 56.5799535 183.568502 46.0513017 173.31108 41.6787469"></polygon>
        <polygon id="路径" fill-opacity="0.12" fill="#FFFFFF" fill-rule="nonzero" mask="url(#mask-8)" points="-17.2238179 133.091444 -12.843044 132.557203 -9.79376237 130.264077 -2.10069599 133.551713 -1.57467436 137.907829 -3.21849196 135.688676 -4.73902324 135.869496 -5.81572377 138.417413 -6.37462176 133.790066 -8.7417191 134.077734 -7.57460861 143.685848 -5.2486067 143.39818 -3.6047891 138.89412 -0.933585495 142.863939 -0.991119111 142.905035 1.47460729 142.609148 0.192429562 132.080496 -10.0567732 127.707941"></polygon>
        <polygon id="路径" fill-opacity="0.12" fill="#FFFFFF" fill-rule="nonzero" mask="url(#mask-8)" points="59.9145606 134.82749 57.3852447 135.136523 55.5690818 136.496268 51.1570421 134.618298 50.833746 131.941598 51.7846167 133.220519 52.6594177 133.115923 53.2822379 131.642073 53.6102883 134.318774 54.9747876 134.152372 54.2996695 128.575515 52.9541875 128.737163 52.0033169 131.347303 50.5152044 129.136529 49.0603723 129.31244 49.8020514 135.436047 55.7354841 137.965363"></polygon>
        <polygon id="路径" fill-opacity="0.12" fill="#FFFFFF" fill-rule="nonzero" mask="url(#mask-8)" points="50.0350147 127.905152 52.5643306 127.600873 54.3281956 126.274409 58.7782702 128.17615 59.0825488 130.691203 58.1316781 129.412282 57.2568771 129.516877 56.6340569 130.990727 56.3107609 128.314026 54.9415072 128.480428 55.6166253 134.057285 56.9621073 133.895637 57.9129779 131.285497 59.4581427 133.581849 59.4248622 133.605621 60.8273964 133.439219 60.0904716 127.348892 54.1570389 124.814822"></polygon>
        <polygon id="路径" fill-opacity="0.12" fill="#FFFFFF" fill-rule="nonzero" mask="url(#mask-8)" points="131.05018 132.274477 124.724603 133.035448 120.182554 136.447931 109.148465 131.691858 108.339933 124.997686 110.717969 128.208035 112.917653 127.946451 114.475266 124.260494 115.283799 130.954667 118.708171 130.53851 117.043546 116.626998 113.678624 117.043154 111.300588 123.558974 107.5314 118.030039 103.893005 118.481866 105.747873 133.78453 120.6106 140.098216"></polygon>
        <polygon id="路径" fill-opacity="0.12" fill="#FFFFFF" fill-rule="nonzero" mask="url(#mask-8)" points="106.342382 114.962372 112.667959 114.189511 117.091106 110.87215 128.220316 115.628223 128.981288 121.918129 126.603252 118.70778 124.415458 118.981254 122.857844 122.65532 122.049312 115.973038 118.62494 116.377304 120.313346 130.336377 123.678267 129.932111 126.056303 123.404401 129.908722 129.147359 129.837381 129.20681 133.333094 128.778763 131.490116 113.547441 116.65117 107.221864"></polygon>
        <polygon id="路径" fill-opacity="0.12" fill="#FFFFFF" fill-rule="nonzero" mask="url(#mask-8)" points="179.454087 119.348248 177.552159 119.580191 176.19262 120.604306 172.881196 119.176968 172.63498 117.16799 173.348649 118.127874 174.005225 118.049371 174.472678 116.943184 174.715325 118.952162 175.743009 118.82727 175.236304 114.641601 174.226462 114.762925 173.512793 116.721946 172.399469 115.062666 171.307556 115.194695 171.867786 119.801428 176.32108 121.699788"></polygon>
        <polygon id="路径备份-5" fill-opacity="0.12" fill="#FFFFFF" fill-rule="nonzero" mask="url(#mask-8)" points="194.741347 92.5539846 193.005819 92.7656344 191.765226 93.7001496 188.743518 92.3976894 188.518844 90.5644766 189.170074 91.4403811 189.769205 91.3687458 190.195761 90.3593392 190.417179 92.1925519 191.354951 92.0785866 190.892577 88.2591221 189.971087 88.3698312 189.319857 90.1574578 188.303938 88.6433478 187.307556 88.7638254 187.818771 92.9675157 191.882447 94.6997878"></polygon>
        <polygon id="路径" fill-opacity="0.12" fill="#FFFFFF" fill-rule="nonzero" mask="url(#mask-8)" points="172.035498 114.152738 173.937426 113.924364 175.261282 112.928796 178.601253 114.356134 178.829627 116.243788 178.115958 115.283903 177.459382 115.362407 176.988361 116.468594 176.745713 114.459616 175.71803 114.584508 176.228303 118.770177 177.238145 118.648853 177.951814 116.689831 179.111526 118.413342 179.086548 118.434752 180.13921 118.306292 179.582548 113.735242 175.132822 111.836882"></polygon>
        <polygon id="路径备份-6" fill-opacity="0.12" fill="#FFFFFF" fill-rule="nonzero" mask="url(#mask-8)" points="187.97181 87.8130295 189.707339 87.6046358 190.91537 86.6961698 193.963127 87.99863 194.171521 89.7211337 193.520291 88.8452292 192.921159 88.9168645 192.491347 89.9262711 192.269929 88.0930584 191.332158 88.2070237 191.797787 92.0264882 192.719278 91.9157791 193.370508 90.1281525 194.428757 91.7008732 194.405964 91.7204101 195.366528 91.6031887 194.858569 87.4320599 190.798149 85.6997878"></polygon>
        <polygon id="路径" fill-opacity="0.12" fill="#FFFFFF" fill-rule="nonzero" mask="url(#mask-8)" points="29.5128408 47.3869035 33.6809017 44.2549171 31.1524999 44.5590858 29.3369934 45.923092 24.9265482 44.022038 24.6128743 41.3653151 25.5634012 42.6437739 26.4378861 42.5392159 27.0604812 41.0658991 27.388413 43.7416326 28.7571719 43.5752903 28.0775451 37.9956969 26.7325494 38.1620392 25.7820224 40.7712357 24.2944477 38.5612605 22.8401414 38.737108 23.5815525 44.8537491"></polygon>
        <polygon id="路径" fill-opacity="0.12" fill="#FFFFFF" fill-rule="nonzero" mask="url(#mask-8)" points="28.0870504 35.7049269 32.5355167 37.6059809 32.8396853 40.1201248 31.8891583 38.8369133 31.0146735 38.9462239 30.4063362 40.4147881 30.083157 37.7390547 28.7143982 37.9053969 29.3892723 43.4802376 30.734268 43.3186481 31.684795 40.7094515 33.2246487 43.0049741 33.1913803 43.0049741 34.5934076 42.8338793 33.8567492 36.745754 27.9302134 34.2363627 23.8144316 37.3303281 26.3428334 37.0261594"></polygon>
        <polygon id="路径" fill-opacity="0.12" fill="#FFFFFF" fill-rule="nonzero" mask="url(#mask-8)" points="76.7983443 46.2362312 85.6453742 39.5807601 80.2725204 40.2372178 76.414569 43.135731 67.042373 39.0959913 66.3556172 33.4100577 68.3754871 36.136882 70.2438667 35.904597 71.6678749 32.8343948 72.3546307 38.5102291 75.2632432 38.1668512 73.8291356 26.3102152 70.9710198 26.6535931 68.95115 32.1981358 65.800153 27.5019385 62.7097522 27.8756144 64.2347539 40.9138742"></polygon>
        <polygon id="路径" fill-opacity="0.12" fill="#FFFFFF" fill-rule="nonzero" mask="url(#mask-8)" points="73.7685395 21.4120309 83.2215304 25.4517706 83.8678887 30.8044256 81.8480189 28.0776014 79.9897387 28.299787 78.7374194 31.4204859 78.0203656 25.7648504 75.111753 26.1183276 76.5458606 37.9749636 79.4039764 37.6214864 81.4238462 32.087043 84.6960354 36.9650287 84.6354393 36.9650287 87.665244 36.6014521 86.0897456 23.6641858 73.4857578 18.291332 64.7397214 24.8660083 70.1125751 24.2095506"></polygon>
        <polygon id="路径" fill-opacity="0.12" fill="#FFFFFF" fill-rule="nonzero" mask="url(#mask-8)" points="139.66887 31.9309085 144.35286 28.4112399 141.506147 28.7583999 139.471255 30.2859041 134.514878 28.1495346 134.151695 25.1425946 135.21988 26.5793031 136.20261 26.4618028 136.902271 24.8061164 137.265454 27.8130564 138.80364 27.6261241 138.045229 21.3612207 136.533747 21.5428121 135.465563 24.4749792 133.799194 21.9914497 132.164872 22.1890639 132.998056 29.0681735"></polygon>
        <polygon id="路径备份" fill-opacity="0.12" fill="#FFFFFF" fill-rule="nonzero" mask="url(#mask-8)" points="86.8661249 146.998141 90.5092282 144.260621 88.2951187 144.530634 86.712425 145.718693 82.857465 144.057072 82.5749895 141.718341 83.4057998 142.835781 84.1701453 142.744392 84.7143261 141.456636 84.9968016 143.795367 86.1931685 143.649975 85.6032932 138.777272 84.4276965 138.91851 83.5968862 141.199085 82.3008221 139.26745 81.0296822 139.42115 81.6777143 144.771569"></polygon>
        <polygon id="路径" fill-opacity="0.12" fill="#FFFFFF" fill-rule="nonzero" mask="url(#mask-8)" points="138.066592 18.8029183 143.065697 20.9392877 143.407516 23.7646363 142.339331 22.3279279 141.356601 22.4454282 140.65694 24.1011145 140.288417 21.0941745 138.750231 21.2811068 139.513983 27.5460102 141.025464 27.3644188 142.093649 24.4322518 143.829449 27.0119179 143.792063 27.0119179 145.367635 26.8249856 144.539792 19.9832624 137.874319 17.1365501 133.249079 20.6134914 136.090451 20.2716723"></polygon>
        <polygon id="路径备份-2" fill-opacity="0.12" fill="#FFFFFF" fill-rule="nonzero" mask="url(#mask-8)" points="85.6199094 136.787482 89.5081018 138.449102 89.7739611 140.646596 88.9431507 139.529156 88.1788052 139.620545 87.6346244 140.908301 87.3479949 138.56957 86.151628 138.714962 86.7456574 143.587664 87.921254 143.446426 88.7520644 141.165852 90.1021312 143.172259 90.0730528 143.172259 91.2984981 143.026867 90.65462 137.705527 85.4703635 135.491417 81.8729547 138.195705 84.0829102 137.929846"></polygon>
        <polygon id="路径" fill-opacity="0.12" fill="#FFFFFF" fill-rule="nonzero" mask="url(#mask-8)" points="203.812116 28.1912235 211.020256 22.7830636 206.647701 23.3090852 203.50801 25.6679635 195.880696 22.3803283 195.321798 17.7529817 196.965616 19.9721355 198.477928 19.7830965 199.554628 17.2433983 200.121745 21.8707448 202.488843 21.5830767 201.362828 11.9667438 199.036826 12.2544118 197.393008 16.7584721 194.820434 12.9365961 192.305393 13.2489215 193.58757 23.8268878"></polygon>
        <polygon id="路径" fill-opacity="0.12" fill="#FFFFFF" fill-rule="nonzero" mask="url(#mask-8)" points="201.34639 7.98870516 209.039456 11.2763404 209.565478 15.6242379 207.92166 13.4050842 206.409348 13.5941232 205.332647 16.1338214 204.773749 11.5064748 202.406652 11.7941429 203.573762 21.4433522 205.899764 21.1639032 207.543582 16.6516239 210.206566 20.6214434 210.149033 20.6214434 212.573664 20.3255563 211.299705 9.79690453 201.042283 5.42434971 193.924553 10.774976 198.297108 10.2407353"></polygon>
        <polygon id="路径" fill-opacity="0.12" fill="#FFFFFF" fill-rule="nonzero" mask="url(#mask-8)" points="44.8630304 109.403462 38.8489621 110.125602 34.5499753 113.363946 24.0789522 108.906991 23.3116789 102.55442 25.5683649 105.589663 27.6445161 105.341427 29.1226454 101.843564 29.8899187 108.196135 33.1395465 107.801215 31.5372995 94.5657515 28.3440887 94.9493881 26.0874027 101.143991 22.5556891 95.8971962 19.1029595 96.3146831 20.8631746 110.847741 34.9448953 116.850526"></polygon>
        <polygon id="路径" fill-opacity="0.12" fill="#FFFFFF" fill-rule="nonzero" mask="url(#mask-8)" points="21.4160627 92.9409375 27.4188475 92.218798 31.605 89.070721 42.1662906 93.584093 42.8884301 99.5530276 40.6317441 96.5177849 38.555593 96.7660203 37.0774636 100.263884 36.2989069 93.9113125 33.0492791 94.3062326 34.6515262 107.609397 37.8447369 107.22576 40.1014229 101.031157 43.7685377 106.481054 43.6895536 106.481054 47.0181655 106.086134 45.2692339 91.6320596 31.1875131 85.6179914"></polygon>
        <polygon id="路径" fill-opacity="0.12" fill="#FFFFFF" fill-rule="nonzero" mask="url(#mask-8)" points="91.3585538 101.078096 86.9859989 101.612337 83.8298692 103.995872 76.2025555 100.708237 75.6436575 96.0808905 77.2874751 98.3000442 78.7997873 98.1110052 79.8764878 95.571307 80.4436049 100.190434 82.8107022 99.9109855 81.6600299 90.2617761 79.334028 90.5412251 77.6902104 95.0535045 75.1176359 91.2316285 72.5943758 91.5357348 73.8765536 102.12192 84.1339754 106.494475"></polygon>
        <polygon id="路径" fill-opacity="0.12" fill="#FFFFFF" fill-rule="nonzero" mask="url(#mask-8)" points="74.2792889 89.1193229 78.6518437 88.5850822 81.7011254 86.2919566 89.3941917 89.5795918 89.9284325 93.9274894 88.2846149 91.7083356 86.7723027 91.8891556 85.6956021 94.4370729 85.1367041 89.8097263 82.7696068 90.0973944 83.9367173 99.7466037 86.2627192 99.4589356 87.9065368 94.9548754 90.5695213 98.9246949 90.5119877 98.9657903 92.9366187 98.6699032 91.66266 88.1412514 81.3641427 83.7933539"></polygon>
        <polygon id="路径" fill-opacity="0.12" fill="#FFFFFF" fill-rule="nonzero" mask="url(#mask-8)" points="155.031829 93.3603723 150.659274 93.894613 147.519582 96.2452722 139.900488 92.9987325 139.33337 88.3713859 140.977188 90.5823206 142.4895 90.4015006 143.566201 87.8535834 144.125099 92.4809299 146.492196 92.1932618 145.325086 82.5522716 143.007303 82.8645969 141.363485 87.3768763 138.79913 83.5550003 136.284089 83.8591066 137.566267 94.4452919 147.823688 98.8178468"></polygon>
        <polygon id="路径" fill-opacity="0.12" fill="#FFFFFF" fill-rule="nonzero" mask="url(#mask-8)" points="137.952564 81.3933802 142.333338 80.8673585 145.382619 78.574233 153.075686 81.8618682 153.601707 86.2097658 151.95789 83.9988311 150.437358 84.179651 149.360658 86.7275683 148.80176 82.1002218 146.434663 82.3878898 147.601773 92.0288801 149.927775 91.7494311 151.571593 87.2371518 154.242796 91.2069713 154.185263 91.2480667 156.609893 90.9603986 155.335935 80.4481851 145.078513 76.0674112"></polygon>
        <polygon id="路径" fill-opacity="0.12" fill="#FFFFFF" fill-rule="nonzero" mask="url(#mask-8)" points="218.713322 85.6426487 214.332549 86.1686703 211.225733 88.5522058 203.59842 85.2645706 203.039522 80.6372241 204.683339 82.8563778 206.195651 82.6755579 207.272352 80.1276406 207.83125 84.7549872 210.198347 84.4673191 209.031237 74.8181098 206.705235 75.1057779 205.061417 79.6098381 202.488843 75.7879622 199.973802 76.1002875 201.25598 86.6782538 211.505182 91.0836849"></polygon>
        <polygon id="路径" fill-opacity="0.12" fill="#FFFFFF" fill-rule="nonzero" mask="url(#mask-8)" points="25.3181816 154.387101 18.2004514 159.737727 22.5812253 159.211705 25.630507 156.91858 33.3235733 160.206215 33.849595 164.554113 32.2057774 162.343178 30.6852461 162.523998 29.6085456 165.071915 29.0496476 160.444569 26.6825502 160.732237 27.8578798 170.373227 30.1756626 170.093778 31.8194802 165.581499 34.4906838 169.551318 34.4331502 169.592414 36.8577812 169.304746 35.5756034 158.776094"></polygon>
        <polygon id="路径" fill-opacity="0.12" fill="#FFFFFF" fill-rule="nonzero" mask="url(#mask-8)" points="157.34784 145.83292 151.281286 143.250712 150.836754 139.570248 152.144201 141.328765 153.353589 141.184946 154.209967 139.158403 154.654499 142.838866 156.537223 142.610063 155.602399 134.941886 153.752361 135.164152 152.444914 138.753094 150.398759 135.713279 148.391828 135.955157 149.418174 144.375117 157.570106 147.852926 163.303262 143.544888 159.825453 143.969808"></polygon>
        <polygon id="路径备份-3" fill-opacity="0.12" fill="#FFFFFF" fill-rule="nonzero" mask="url(#mask-8)" points="187.959227 151.694792 184.604202 150.266737 184.358359 148.231307 185.081425 149.203831 185.750261 149.124293 186.223869 148.003541 186.469711 150.038972 187.510926 149.912435 186.993934 145.671654 185.970796 145.794575 185.24773 147.779391 184.116132 146.098263 183.006226 146.23203 183.573833 150.888574 188.082148 152.811929 191.252792 150.429427 189.329437 150.664424"></polygon>
        <polygon id="路径" fill-opacity="0.12" fill="#FFFFFF" fill-rule="nonzero" mask="url(#mask-8)" points="155.38667 129.770932 149.725424 134.020135 153.203233 133.601752 155.628547 131.777864 161.7474 134.392758 162.17232 137.850955 160.864873 136.092439 159.662022 136.236258 158.805644 138.262801 158.361112 134.582338 156.478388 134.811141 157.406676 142.479318 159.256713 142.257052 160.56416 138.66811 162.682225 141.825595 162.643001 141.864818 164.564948 141.629478 163.551677 133.255279"></polygon>
        <polygon id="路径备份-4" fill-opacity="0.12" fill="#FFFFFF" fill-rule="nonzero" mask="url(#mask-8)" points="186.874628 142.811929 183.743753 145.161893 185.667108 144.930512 187.008395 143.921835 190.392343 145.367967 190.62734 147.280476 189.904274 146.307952 189.239053 146.387489 188.765445 147.508241 188.519603 145.472811 187.478388 145.599348 187.991765 149.840129 189.014903 149.717207 189.737969 147.732392 190.909335 149.478596 190.887643 149.500288 191.95055 149.370136 191.390174 144.738899"></polygon>
    </g>
</svg>