<svg width="36" height="36" viewBox="0 0 36 36" fill="none" xmlns="http://www.w3.org/2000/svg">
<circle cx="18" cy="18" r="18" fill="#EEDF7A"/>
<path d="M18.02 8.91003C14.71 8.91003 12.02 11.6 12.02 14.91V17.8C12.02 18.41 11.76 19.34 11.45 19.86L10.3 21.77C9.59 22.95 10.08 24.26 11.38 24.7C15.69 26.14 20.34 26.14 24.65 24.7C25.86 24.3 26.39 22.87 25.73 21.77L24.58 19.86C24.28 19.34 24.02 18.41 24.02 17.8V14.91C24.02 11.61 21.32 8.91003 18.02 8.91003Z" stroke="#7C1820" stroke-width="1.5" stroke-miterlimit="10" stroke-linecap="round"/>
<path d="M19.87 9.19994C19.56 9.10994 19.24 9.03994 18.91 8.99994C17.95 8.87994 17.03 8.94994 16.17 9.19994C16.46 8.45994 17.18 7.93994 18.02 7.93994C18.86 7.93994 19.58 8.45994 19.87 9.19994Z" stroke="#7C1820" stroke-width="1.5" stroke-miterlimit="10" stroke-linecap="round" stroke-linejoin="round"/>
<path d="M21.02 25.0601C21.02 26.7101 19.67 28.0601 18.02 28.0601C17.2 28.0601 16.44 27.7201 15.9 27.1801C15.36 26.6401 15.02 25.8801 15.02 25.0601" stroke="#7C1820" stroke-width="1.5" stroke-miterlimit="10"/>
<circle cx="24" cy="12" r="4.5" fill="#E60012" stroke="#EEDF7A"/>
</svg>
