<svg width="36" height="36" viewBox="0 0 36 36" fill="none" xmlns="http://www.w3.org/2000/svg">
<circle cx="18" cy="18" r="18" fill="#EEDF7A"/>
<path d="M18.0201 8.91C14.7101 8.91 12.0201 11.6 12.0201 14.91V17.8C12.0201 18.41 11.7601 19.34 11.4501 19.86L10.3001 21.77C9.59009 22.95 10.0801 24.26 11.3801 24.7C15.6901 26.14 20.3401 26.14 24.6501 24.7C25.8601 24.3 26.3901 22.87 25.7301 21.77L24.5801 19.86C24.2801 19.34 24.0201 18.41 24.0201 17.8V14.91C24.0201 11.61 21.3201 8.91 18.0201 8.91Z" stroke="#7C1820" stroke-width="1.5" stroke-miterlimit="10" stroke-linecap="round"/>
<path d="M19.8699 9.2C19.5599 9.11 19.2399 9.04 18.9099 9C17.9499 8.88 17.0299 8.95 16.1699 9.2C16.4599 8.46 17.1799 7.94 18.0199 7.94C18.8599 7.94 19.5799 8.46 19.8699 9.2Z" stroke="#7C1820" stroke-width="1.5" stroke-miterlimit="10" stroke-linecap="round" stroke-linejoin="round"/>
<path d="M21.02 25.06C21.02 26.71 19.67 28.06 18.02 28.06C17.2 28.06 16.44 27.72 15.9 27.18C15.36 26.64 15.02 25.88 15.02 25.06" stroke="#7C1820" stroke-width="1.5" stroke-miterlimit="10"/>
</svg>
